<svg 
 xmlns="http://www.w3.org/2000/svg"
 xmlns:xlink="http://www.w3.org/1999/xlink"
 width="167px" height="167px">
<defs>
<filter id="Filter_0">
    <feOffset in="SourceAlpha" dx="0" dy="29" />
    <feGaussianBlur result="blurOut" stdDeviation="4.472" />
    <feFlood flood-color="rgb(0, 1, 5)" result="floodOut" />
    <feComposite operator="out" in="floodOut" in2="blurOut" result="compOut" />
    <feComposite operator="in" in="compOut" in2="SourceAlpha" />
    <feComponentTransfer><feFuncA type="linear" slope="0.1"/></feComponentTransfer>
    <feBlend mode="multiply" in2="SourceGraphic" />
</filter>

</defs>
<path fill-rule="evenodd"  stroke-width="1px" stroke="rgb(33, 223, 172)" opacity="0.2" fill="rgb(255, 255, 255)"
 d="M83.500,4.312 C127.234,4.312 162.687,39.766 162.687,83.500 C162.687,127.234 127.234,162.687 83.500,162.687 C39.766,162.687 4.312,127.234 4.312,83.500 C4.312,39.766 39.766,4.312 83.500,4.312 Z"/>
<path fill-rule="evenodd"  opacity="0.2" fill="rgb(33, 223, 172)"
 d="M83.500,17.500 C119.951,17.500 149.500,47.049 149.500,83.500 C149.500,119.951 119.951,149.500 83.500,149.500 C47.049,149.500 17.500,119.951 17.500,83.500 C17.500,47.049 47.049,17.500 83.500,17.500 Z"/>
<g filter="url(#Filter_0)">
<path fill-rule="evenodd"  fill="rgb(33, 223, 172)"
 d="M83.500,33.500 C111.114,33.500 133.500,55.886 133.500,83.500 C133.500,111.114 111.114,133.500 83.500,133.500 C55.886,133.500 33.500,111.114 33.500,83.500 C33.500,55.886 55.886,33.500 83.500,33.500 Z"/>
</g>
</svg>