<?xml version="1.0"?>
<svg xmlns="http://www.w3.org/2000/svg" id="Layer_1" data-name="Layer 1" viewBox="0 0 512 512" width="512" height="512"><path fill="#fff" d="M394.15,84H374v18.65a7,7,0,0,1-14,0V84H152v18.65a7,7,0,0,1-14,0V84H117.85A33.033,33.033,0,0,0,85,117.145V426.206A32.734,32.734,0,0,0,117.85,459h276.3A32.734,32.734,0,0,0,427,426.206V117.145A33.033,33.033,0,0,0,394.15,84ZM206.7,360.06l-43.927,42a7,7,0,0,1-9.788-.11L129.1,378.061a7,7,0,1,1,9.9-9.9l19.049,19.05,38.979-37.27a7,7,0,0,1,9.676,10.12Zm0-100-43.927,42a7,7,0,0,1-9.788-.11L129.1,278.061a7,7,0,1,1,9.9-9.9l19.049,19.05,38.979-37.27a7,7,0,0,1,9.676,10.12Zm0-100-43.927,42a7,7,0,0,1-9.788-.11L129.1,178.061a7,7,0,1,1,9.9-9.9l19.049,19.05,38.979-37.27a7,7,0,0,1,9.676,10.12ZM377.954,383h-115a7,7,0,1,1,0-14h115a7,7,0,0,1,0,14Zm0-100h-115a7,7,0,1,1,0-14h115a7,7,0,0,1,0,14Zm0-100h-115a7,7,0,0,1,0-14h115a7,7,0,0,1,0,14Z"/><path fill="#fff" d="M374,45.794a7,7,0,1,0-14,0V84h14Z"/><path fill="#fff" d="M152,45.794a7,7,0,1,0-14,0V84h14Z"/></svg>
