<svg 
 xmlns="http://www.w3.org/2000/svg"
 xmlns:xlink="http://www.w3.org/1999/xlink"
 width="41px" height="41px">
<path fill-rule="evenodd"  opacity="0.149" fill="rgb(34, 23, 42)"
 d="M20.500,0.490 C31.546,0.490 40.500,9.446 40.500,20.495 C40.500,31.543 31.546,40.500 20.500,40.500 C9.454,40.500 0.500,31.543 0.500,20.495 C0.500,9.446 9.454,0.490 20.500,0.490 Z"/>
<path fill-rule="evenodd"  fill="rgb(34, 23, 42)"
 d="M21.000,6.000 C29.284,6.000 36.000,12.716 36.000,21.000 C36.000,29.284 29.284,36.000 21.000,36.000 C12.716,36.000 6.000,29.284 6.000,21.000 C6.000,12.716 12.716,6.000 21.000,6.000 Z"/>
<path fill-rule="evenodd"  stroke-width="2px" stroke="rgb(33, 223, 172)" fill="rgb(34, 23, 42)"
 d="M20.500,13.743 L27.256,20.500 L20.500,27.256 L13.744,20.500 L20.500,13.743 Z"/>
</svg>