<svg 
 xmlns="http://www.w3.org/2000/svg"
 xmlns:xlink="http://www.w3.org/1999/xlink"
 width="71px" height="71px">
<path fill-rule="evenodd"  opacity="0.149" fill="rgb(34, 23, 42)"
 d="M34.500,0.500 C53.278,0.500 68.500,15.722 68.500,34.500 C68.500,53.278 53.278,68.500 34.500,68.500 C15.722,68.500 0.500,53.278 0.500,34.500 C0.500,15.722 15.722,0.500 34.500,0.500 Z"/>
<path fill-rule="evenodd"  fill="rgb(34, 23, 42)"
 d="M34.344,8.844 C48.427,8.844 59.844,20.260 59.844,34.344 C59.844,48.427 48.427,59.844 34.344,59.844 C20.260,59.844 8.844,48.427 8.844,34.344 C8.844,20.260 20.260,8.844 34.344,8.844 Z"/>
<path fill-rule="evenodd"  stroke="rgb(33, 223, 172)" stroke-width="4px" stroke-linecap="butt" stroke-linejoin="miter" fill="rgb(34, 23, 42)"
 d="M34.844,24.844 C40.367,24.844 44.844,29.321 44.844,34.844 C44.844,40.367 40.367,44.844 34.844,44.844 C29.321,44.844 24.844,40.367 24.844,34.844 C24.844,29.321 29.321,24.844 34.844,24.844 Z"/>
</svg>