<?xml version="1.0" encoding="utf-8"?>
<!-- Generator: Adobe Illustrator 19.2.1, SVG Export Plug-In . SVG Version: 6.00 Build 0)  -->
<svg version="1.1" id="Capa_1" xmlns="http://www.w3.org/2000/svg" xmlns:xlink="http://www.w3.org/1999/xlink" x="0px" y="0px"
	 viewBox="0 0 512 512" style="enable-background:new 0 0 512 512;" xml:space="preserve">
<style type="text/css">
	.st0{fill:#F3F3F3;}
	.st1{fill:#22172A;}
</style>
<g>
	<rect x="146" y="50.7" class="st0" width="219" height="386"/>
	<path class="st1" d="M337.3,512c0,0,46.5,0,46.5-46.5V46.5C383.8,0,337.3,0,337.3,0H174.7c0,0-46.5,0-46.5,46.5v418.9
		c0,46.5,46.5,46.5,46.5,46.5H337.3z M256,492.6c-12.8,0-23.2-10.4-23.2-23.2c0-12.8,10.4-23.2,23.2-23.2
		c12.8,0,23.2,10.4,23.2,23.2C279.2,482.2,268.8,492.6,256,492.6z M221.1,28.4c0-2.9,1.4-5.1,3.1-5.1h63.5c1.7,0,3.1,2.3,3.1,5.1
		v1.4c0,2.9-1.4,5.1-3.1,5.1h-63.5c-1.7,0-3.1-2.3-3.1-5.1V28.4z M151.4,58.1h209.1v371.8H151.4V58.1z"/>
</g>
</svg>
